# xmcd CD database file
#
# Track frame offsets:
#	150
#	11655
#	28206
#	38242
#	47466
#	61069
#	75864
#	89770
#	105148
#	116510
#	134920
#	145258
#
# Disc length: 2219 seconds
#
# Revision: 0
# Processed by: cddbd v1.5.2PL0 Copyright (c) Steve Scherf et al.
# Submitted via: ACXtractor (MTCDDB.DLL V2003.12.21)
#
DISCID=9708a90c
DTITLE=Charley Boyter - Axe Marks on the Gidgee
DYEAR=2013
DGENRE=Country
TTITLE0=Leave Him in the Longyard
TTITLE1=Like a Family to Me
TTITLE2=Didgeri Goor
TTITLE3=Shearing Shed Blues
TTITLE4=Born To Be A Rolling Stone
TTITLE5=A Great Friend
TTITLE6=Axe Marks on the Gidgee
TTITLE7=Never Find Another Like You
TTITLE8=Tanami Track
TTITLE9=An Empty Plate
TTITLE10=Good Morning Australia
TTITLE11=One Last Round
EXTD=ID3G:   2 YEAR: 2013
EXTT0=
EXTT1=
EXTT2=
EXTT3=
EXTT4=
EXTT5=
EXTT6=
EXTT7=
EXTT8=
EXTT9=
EXTT10=
EXTT11=
PLAYORDER=
